<svg width="180" height="163" viewBox="0 0 180 163" fill="none" xmlns="http://www.w3.org/2000/svg">
<path fill-rule="evenodd" clip-rule="evenodd" d="M54.6799 0.5H55.295H124.705H125.32L125.758 0.931791L163.053 37.6978L163.5 38.1384V38.766V109.234V109.862L163.053 110.302L145.971 127.142L151.664 132.835L154.417 129.962L154.86 129.5H155.5H170.5H171.14L171.583 129.962L179.083 137.788L179.5 138.223V138.826V153.174V153.777L179.083 154.212L171.583 162.038L171.14 162.5H170.5H155.5H154.86L154.417 162.038L146.917 154.212L146.5 153.777V153.174V138.826V138.223L146.917 137.788L150.28 134.28L144.546 128.546L125.758 147.068L125.32 147.5H124.705H55.295H54.6799L54.2419 147.068L35.8097 128.897L30.0665 134.641L33.083 137.788L33.5 138.223V138.826V153.174V153.777L33.083 154.212L25.583 162.038L25.1401 162.5H24.5H9.5H8.8599L8.41702 162.038L0.917018 154.212L0.5 153.777V153.174V138.826V138.223L0.917018 137.788L8.41702 129.962L8.8599 129.5H9.5H24.5H25.1401L25.583 129.962L28.6824 133.196L34.3854 127.493L16.9469 110.302L16.5 109.862V109.234V38.766V38.1384L16.9469 37.6978L54.2419 0.931791L54.6799 0.5ZM55.91 3.5L19.5 39.3936V108.606L55.91 144.5H124.09L160.5 108.606V39.3936L124.09 3.5H55.91ZM149.5 139.429L156.14 132.5H169.86L176.5 139.429V152.571L169.86 159.5H156.14L149.5 152.571V139.429ZM10.1401 132.5L3.5 139.429V152.571L10.1401 159.5H23.8599L30.5 152.571V139.429L23.8599 132.5H10.1401Z" fill="#2657B7" fill-opacity="0.71"/>
</svg>
